<?xml version="1.0" standalone="no"?>
<!DOCTYPE svg PUBLIC "-//W3C//DTD SVG 20010904//EN"
 "http://www.w3.org/TR/2001/REC-SVG-20010904/DTD/svg10.dtd">
<svg version="1.0" xmlns="http://www.w3.org/2000/svg"
 width="768.000000pt" height="768.000000pt" viewBox="0 0 768.000000 768.000000"
 preserveAspectRatio="xMidYMid meet">
<metadata>
Created by potrace 1.14, written by Peter Selinger 2001-2017
</metadata>
<g transform="translate(0.000000,768.000000) scale(0.100000,-0.100000)"
fill="#000000" stroke="none">
<path d="M2974 7665 c-62 -13 -195 -62 -204 -75 -3 -4 -16 -13 -30 -20 -35
-19 -108 -79 -148 -122 -112 -123 -181 -280 -187 -426 -2 -35 -5 -66 -8 -68
-3 -3 -2 -18 2 -32 4 -15 4 -39 0 -54 -4 -16 -3 -28 1 -28 5 0 5 -13 0 -30 -5
-19 -5 -30 1 -30 6 0 7 -5 4 -10 -8 -14 -11 -108 -3 -116 4 -3 2 -19 -2 -35
-5 -16 -5 -29 0 -29 4 0 4 -16 0 -35 -4 -19 -4 -37 1 -40 4 -3 4 -17 -1 -30
-6 -15 -6 -27 0 -30 5 -3 7 -11 5 -18 -8 -19 -11 -137 -4 -137 3 0 4 -11 1
-25 -5 -28 -37 -52 -47 -35 -3 6 -15 6 -29 0 -13 -5 -26 -6 -30 -3 -8 8 -106
9 -106 1 0 -4 -13 -3 -30 2 -16 5 -30 6 -30 2 0 -8 -108 -7 -117 1 -3 3 -16 2
-29 -3 -13 -5 -26 -6 -29 0 -3 5 -18 5 -35 0 -17 -5 -32 -5 -35 0 -3 6 -16 5
-29 0 -13 -5 -26 -6 -29 -3 -8 8 -117 9 -117 1 0 -4 -13 -3 -30 2 -16 5 -30 6
-30 2 0 -8 -109 -6 -117 1 -2 3 -18 1 -34 -3 -16 -5 -29 -5 -29 0 0 4 -16 4
-35 0 -19 -4 -37 -4 -40 1 -3 4 -17 4 -30 -1 -15 -6 -27 -6 -30 1 -4 5 -10 7
-15 4 -7 -4 -61 -6 -110 -4 -8 0 -44 -2 -79 -5 -124 -11 -253 -60 -355 -135
-62 -46 -156 -141 -156 -158 0 -7 -4 -13 -10 -13 -15 0 -88 -160 -109 -240
-20 -74 -20 -120 -18 -2590 l2 -2515 24 -70 c12 -38 28 -76 33 -82 6 -7 8 -13
4 -13 -19 0 105 -174 157 -220 16 -14 36 -33 45 -42 9 -10 22 -18 29 -18 7 0
13 -3 13 -8 0 -13 111 -69 195 -99 l80 -28 1785 -2 c1947 -3 1848 -6 1990 54
36 15 67 30 70 33 3 4 16 13 30 21 74 40 195 161 230 229 7 14 16 27 20 30 10
8 59 135 71 187 6 27 13 81 15 121 1 39 5 76 9 81 3 5 1 12 -4 15 -6 4 -6 18
-1 36 5 17 5 32 0 35 -6 3 -5 16 0 29 5 13 6 26 3 30 -8 8 -9 106 -1 106 4 0
3 14 -2 30 -5 17 -6 30 -2 30 8 0 7 108 -1 117 -3 3 -2 16 3 29 5 13 5 26 1
29 -5 3 -5 21 -1 40 4 19 4 37 -1 40 -4 3 -4 17 1 30 5 13 6 27 1 29 -12 8 -1
54 15 60 7 3 16 1 19 -4 3 -5 15 -6 28 -1 12 5 30 5 41 2 10 -4 41 -4 68 -1
27 4 51 3 54 -1 3 -5 16 -4 29 1 14 5 27 5 30 0 3 -5 18 -5 35 0 17 5 30 5 30
0 0 -5 12 -5 28 -1 15 5 35 5 46 1 10 -3 41 -3 68 0 27 4 51 3 54 -1 3 -5 16
-4 29 1 14 5 27 5 30 0 3 -5 18 -5 35 0 17 5 30 5 30 0 0 -5 12 -5 28 -1 15 5
35 5 46 1 10 -3 41 -3 68 0 27 4 51 3 54 -1 3 -5 16 -4 29 1 14 5 27 5 30 0 3
-5 18 -5 35 0 17 5 30 5 30 0 0 -5 13 -5 29 0 16 4 32 6 34 3 9 -8 70 -9 100
-2 16 5 27 4 27 -2 0 -6 4 -8 9 -5 5 4 41 8 79 11 289 21 542 234 629 530 17
56 18 184 21 2155 2 1427 -1 2117 -8 2163 -16 108 -54 199 -133 321 -6 11
-211 218 -454 462 -316 317 -462 456 -512 488 -38 25 -74 46 -79 46 -4 0 -26
9 -48 19 -103 50 -82 49 -1554 49 -1103 0 -1387 -2 -1436 -13z m311 -705 c3 5
18 5 33 2 15 -4 41 -6 57 -5 60 6 124 5 134 -2 6 -3 11 -1 11 5 0 6 5 8 11 5
6 -4 33 -7 60 -6 27 1 71 1 98 2 27 1 54 -2 60 -5 5 -4 12 -2 15 3 4 6 18 6
35 1 15 -4 34 -4 41 0 7 4 26 4 41 0 16 -5 31 -5 34 0 3 5 18 5 33 1 15 -5 36
-5 47 -1 11 4 32 4 47 -1 15 -4 30 -4 33 1 3 5 18 5 33 1 15 -5 36 -5 47 -1
11 4 32 4 47 -1 15 -4 30 -4 33 1 3 5 18 5 33 1 15 -5 36 -5 47 -1 11 4 32 4
47 -1 16 -4 30 -3 34 2 3 5 10 7 15 3 9 -5 34 -6 156 -3 28 1 56 -2 62 -6 6
-3 11 -2 11 4 0 6 6 8 14 5 24 -9 79 -10 103 -2 13 4 25 2 31 -5 12 -16 22
-57 14 -57 -4 0 -7 -16 -7 -35 0 -19 3 -35 7 -35 4 0 3 -13 -2 -30 -5 -17 -5
-30 0 -30 5 0 5 -13 0 -30 -5 -17 -5 -30 0 -30 5 0 5 -13 0 -29 -4 -15 -4 -34
0 -42 5 -7 5 -20 0 -29 -5 -9 -5 -22 0 -30 5 -8 5 -21 0 -30 -5 -9 -5 -22 0
-30 5 -8 5 -21 0 -30 -5 -9 -5 -22 -1 -29 5 -7 5 -29 2 -49 -4 -20 -4 -50 -1
-67 3 -16 3 -45 -1 -62 -4 -18 -3 -33 1 -33 5 0 5 -13 0 -30 -5 -17 -5 -30 0
-30 5 0 5 -13 0 -30 -5 -17 -5 -30 0 -30 5 0 5 -13 0 -30 -5 -17 -5 -30 0 -30
5 0 5 -13 0 -29 -4 -15 -4 -34 0 -42 5 -7 5 -20 0 -29 -5 -9 -5 -22 0 -30 5
-8 5 -21 0 -30 -5 -9 -5 -22 0 -30 5 -8 5 -21 0 -30 -5 -9 -5 -22 -1 -29 5 -7
5 -29 1 -49 -3 -20 -3 -52 1 -69 3 -18 3 -33 -2 -33 -5 0 -6 -6 -3 -13 3 -8 6
-31 8 -53 10 -133 110 -261 237 -303 33 -11 110 -23 137 -22 28 2 40 2 95 -1
31 -2 57 0 57 4 0 4 14 3 30 -2 17 -5 30 -6 30 -2 0 8 109 6 117 -1 2 -3 18
-1 34 3 16 5 29 5 29 0 0 -4 16 -4 35 0 19 4 35 4 35 0 0 -5 13 -5 29 0 16 4
32 6 35 3 8 -8 106 -9 106 -1 0 4 14 3 30 -2 17 -5 30 -6 30 -2 0 8 108 7 117
-1 3 -3 16 -2 29 3 13 5 26 6 29 0 3 -5 18 -5 35 0 17 5 32 5 35 0 3 -6 16 -5
29 0 13 5 26 6 29 3 7 -6 117 -10 117 -3 0 4 41 4 166 1 15 -1 21 -8 22 -31 3
-50 3 -123 1 -152 -1 -7 -1 -26 0 -43 1 -16 1 -37 0 -45 0 -8 1 -30 4 -47 2
-18 2 -33 -2 -33 -8 0 -5 -105 3 -119 4 -6 2 -11 -4 -11 -6 0 -8 -5 -5 -10 4
-6 6 -32 6 -58 -1 -26 -1 -74 -1 -107 1 -60 1 -75 -1 -97 0 -7 1 -28 4 -45 2
-18 2 -33 -2 -33 -8 0 -5 -105 3 -119 4 -6 2 -11 -4 -11 -6 0 -8 -5 -5 -10 4
-6 6 -32 6 -58 -1 -26 -1 -74 -1 -107 1 -60 1 -75 -1 -97 0 -7 1 -28 4 -45 2
-18 2 -33 -2 -33 -8 0 -5 -105 3 -119 4 -6 2 -11 -4 -11 -6 0 -8 -5 -5 -10 4
-6 6 -32 6 -58 -1 -26 -1 -74 -1 -107 1 -60 1 -75 -1 -97 0 -7 1 -28 4 -45 2
-18 2 -33 -2 -33 -8 0 -5 -105 3 -119 4 -6 2 -11 -4 -11 -6 0 -8 -5 -5 -10 4
-6 6 -32 6 -58 -1 -26 -1 -74 -1 -107 1 -60 1 -75 -1 -97 0 -7 1 -28 4 -45 2
-18 2 -33 -2 -33 -8 0 -5 -105 3 -119 4 -6 2 -11 -4 -11 -6 0 -8 -5 -5 -10 4
-6 6 -32 6 -58 -1 -26 -1 -74 -1 -107 1 -33 1 -67 0 -75 0 -8 0 -24 1 -35 0
-21 0 -48 -2 -127 -1 -25 2 -51 6 -57 3 -6 2 -11 -4 -11 -6 0 -7 -11 -3 -27 4
-16 6 -41 5 -58 -2 -16 -3 -45 -3 -62 -1 -20 -10 -44 -24 -60 -22 -26 -31 -28
-103 -30 -66 -3 -153 -3 -213 -2 -8 0 -51 0 -95 0 -44 0 -102 0 -130 0 -27 0
-81 0 -120 0 -38 0 -77 0 -85 0 -8 0 -49 0 -90 -1 -41 -1 -138 -1 -215 -1 -77
0 -149 0 -160 0 -11 0 -85 0 -165 0 -80 0 -152 0 -160 0 -8 0 -49 0 -90 0 -41
0 -82 0 -90 0 -12 0 -200 0 -235 0 -5 0 -37 0 -70 0 -33 0 -85 0 -115 0 -44 0
-264 0 -355 0 -11 0 -72 0 -135 0 -132 0 -131 0 -265 1 -138 1 -277 1 -295 1
-64 -3 -88 1 -110 17 -30 22 -51 94 -39 135 4 15 4 27 0 27 -4 0 -4 27 -1 60
3 34 4 63 2 65 -2 2 -3 183 -3 402 2 461 2 420 1 505 -1 37 1 72 5 78 3 5 2
10 -2 10 -5 0 -6 27 -3 60 3 34 4 63 1 65 -7 7 -4 92 3 104 4 6 3 11 -1 11 -5
0 -6 27 -3 61 3 33 3 62 0 64 -7 4 -3 82 4 102 3 7 2 13 -2 13 -4 0 -5 27 -2
60 3 34 4 63 1 65 -7 7 -4 92 3 104 4 6 3 11 -1 11 -5 0 -6 27 -3 61 3 33 3
62 0 64 -7 4 -3 82 4 102 3 7 2 13 -2 13 -4 0 -6 314 -4 698 3 795 3 727 2
814 -1 37 1 72 5 78 3 5 2 10 -2 10 -5 0 -6 27 -3 60 3 34 4 63 1 65 -7 7 -4
92 3 104 4 6 3 11 -1 11 -5 0 -6 27 -3 61 3 33 3 62 0 64 -7 4 -3 82 4 102 3
7 2 13 -2 13 -4 0 -5 27 -2 60 3 34 4 63 1 65 -7 7 -4 92 3 104 4 6 3 11 -1
11 -5 0 -6 29 -3 65 3 36 2 65 -2 65 -16 0 26 69 46 76 12 4 30 10 41 14 11 3
32 3 47 -1 15 -4 30 -4 33 1z m2304 0 c8 4 26 4 42 0 15 -5 30 -6 32 -3 18 17
92 -50 433 -391 l380 -381 2 -45 c3 -54 3 -60 0 -102 l-3 -33 -65 -2 c-126 -3
-186 -4 -320 -4 -74 0 -142 0 -150 0 -8 1 -42 0 -75 0 -33 -1 -64 -1 -70 -1
-126 3 -217 2 -225 -3 -5 -3 -10 -2 -10 3 0 6 -9 8 -20 5 -19 -5 -20 0 -21 88
-1 52 0 99 1 104 1 6 1 91 0 190 -1 99 -2 187 -1 195 0 8 0 62 0 120 0 58 0
112 0 120 1 8 1 42 1 74 -1 62 11 81 40 66 9 -5 22 -5 29 0z m-4168 -1439 c41
0 83 0 94 1 11 0 43 0 70 -1 64 -2 514 -3 540 -1 29 2 41 2 125 0 41 -1 80 -1
85 0 6 1 21 2 35 1 20 -1 26 -7 28 -28 7 -63 7 -103 0 -103 -4 0 -3 -13 2 -30
5 -16 6 -30 2 -30 -8 0 -7 -108 1 -117 3 -3 2 -16 -3 -29 -5 -13 -6 -26 0 -29
5 -3 5 -18 0 -34 -4 -15 -4 -34 0 -42 5 -7 5 -20 0 -30 -5 -9 -7 -19 -4 -22 8
-8 10 -117 2 -117 -4 0 -3 -13 2 -30 5 -16 6 -30 2 -30 -8 0 -7 -109 1 -116 3
-3 1 -19 -3 -35 -5 -16 -5 -29 0 -29 4 0 4 -16 0 -35 -4 -19 -4 -37 1 -40 4
-3 4 -16 -1 -29 -5 -13 -6 -26 -3 -30 8 -8 9 -106 1 -106 -4 0 -3 -13 2 -30 5
-16 6 -30 2 -30 -8 0 -7 -108 1 -117 3 -3 2 -16 -3 -29 -5 -13 -6 -26 0 -29 5
-3 5 -18 0 -34 -4 -15 -4 -34 0 -42 5 -7 5 -20 0 -30 -5 -9 -7 -19 -4 -22 8
-8 10 -117 2 -117 -4 0 -3 -13 2 -30 5 -16 6 -30 2 -30 -8 0 -7 -109 1 -116 3
-3 1 -19 -3 -35 -5 -16 -5 -29 0 -29 4 0 4 -16 0 -35 -4 -19 -4 -37 1 -40 4
-3 4 -16 -1 -29 -5 -13 -6 -26 -3 -30 8 -8 9 -106 1 -106 -4 0 -3 -13 2 -30 5
-16 6 -30 2 -30 -8 0 -7 -108 1 -117 3 -3 2 -16 -3 -29 -5 -13 -6 -26 0 -29 5
-3 5 -18 0 -34 -4 -15 -4 -34 0 -42 5 -7 5 -20 0 -30 -5 -9 -7 -19 -4 -22 8
-8 10 -117 2 -117 -4 0 -3 -13 2 -30 5 -16 6 -30 2 -30 -8 0 -7 -109 1 -116 3
-3 1 -19 -3 -35 -5 -16 -5 -29 0 -29 4 0 4 -16 0 -35 -4 -19 -4 -37 1 -40 4
-3 4 -17 -1 -30 -5 -13 -6 -26 -2 -29 5 -3 5 -30 2 -61 -3 -31 -3 -58 2 -61 4
-3 3 -15 -2 -28 -5 -13 -6 -27 -2 -30 3 -4 5 -32 3 -64 -1 -31 -2 -64 -2 -72
2 -51 0 -114 -5 -121 -3 -5 -2 -9 3 -9 4 0 8 -21 7 -47 -2 -156 86 -353 210
-473 56 -54 179 -140 200 -140 7 0 16 -4 22 -9 26 -25 216 -65 292 -62 6 1 18
1 25 2 6 0 31 -1 55 -3 23 -2 42 0 42 4 0 3 14 3 30 -2 17 -5 30 -6 30 -2 0 8
108 7 117 -1 3 -3 16 -2 29 3 13 5 26 6 29 0 3 -5 18 -5 35 0 17 5 32 5 35 0
3 -6 16 -5 29 0 13 5 26 6 29 3 8 -8 117 -9 117 -1 0 4 13 3 30 -2 17 -5 30
-6 30 -2 0 8 108 7 117 -1 3 -3 16 -2 29 3 13 5 26 6 29 0 3 -5 18 -5 35 0 17
5 30 5 30 0 0 -5 12 -5 28 -1 15 5 35 5 46 1 10 -3 41 -3 68 0 27 4 51 3 54
-1 3 -5 16 -4 29 1 14 5 27 5 30 0 3 -5 18 -5 35 0 17 5 30 5 30 0 0 -5 12 -5
28 -1 15 5 36 5 47 1 11 -4 33 -4 50 0 17 4 39 4 50 0 11 -4 23 -6 28 -3 7 4
11 -14 7 -32 -5 -21 -2 -104 5 -114 3 -6 1 -11 -5 -11 -6 0 -8 -5 -5 -10 4 -6
6 -32 6 -58 -1 -45 -1 -145 0 -167 0 -5 0 -19 -1 -30 -1 -11 0 -35 3 -52 2
-18 2 -33 -2 -33 -8 0 -5 -109 2 -117 10 -10 -21 -59 -49 -78 -26 -17 -83 -23
-103 -11 -5 4 -12 2 -15 -3 -4 -5 -19 -6 -34 -3 -15 4 -40 6 -57 5 -60 -6
-124 -5 -134 2 -6 3 -11 1 -11 -5 0 -6 -5 -8 -11 -5 -6 4 -33 7 -60 6 -27 -1
-71 -1 -98 -2 -27 -1 -54 2 -60 5 -5 4 -12 2 -15 -3 -4 -6 -18 -6 -35 -1 -15
4 -34 4 -41 0 -7 -4 -26 -4 -41 0 -16 5 -31 5 -34 0 -3 -5 -18 -5 -33 -1 -15
5 -36 5 -47 1 -11 -4 -32 -4 -47 1 -15 4 -30 4 -33 -1 -3 -5 -18 -5 -33 -1
-15 5 -36 5 -47 1 -11 -4 -32 -4 -47 1 -15 4 -30 4 -33 -1 -3 -5 -18 -5 -33
-1 -15 5 -36 5 -47 1 -11 -4 -32 -4 -47 1 -16 4 -30 3 -34 -2 -3 -5 -10 -7
-15 -3 -9 5 -34 6 -156 3 -28 -1 -56 2 -62 6 -6 3 -11 1 -11 -5 0 -6 -5 -8
-11 -5 -6 4 -33 7 -60 6 -27 -1 -71 -1 -98 -2 -27 -1 -54 2 -60 5 -5 4 -12 2
-15 -3 -4 -5 -19 -6 -34 -3 -15 4 -40 6 -57 5 -60 -6 -124 -5 -134 2 -6 3 -11
1 -11 -5 0 -6 -5 -8 -11 -5 -6 4 -33 7 -60 6 -27 -1 -71 -1 -98 -2 -27 -1 -54
2 -60 5 -5 4 -12 2 -15 -3 -4 -5 -19 -6 -34 -3 -15 4 -40 6 -57 5 -60 -6 -124
-5 -134 2 -6 3 -11 1 -11 -5 0 -6 -5 -8 -11 -5 -10 7 -74 8 -134 2 -16 -1 -42
1 -57 5 -15 3 -30 3 -33 -2 -3 -5 -18 -5 -33 -1 -15 5 -36 5 -47 1 -11 -4 -32
-4 -47 1 -15 4 -30 4 -33 -1 -3 -5 -18 -5 -33 -1 -15 5 -36 5 -47 1 -11 -4
-32 -4 -47 1 -15 4 -30 4 -33 -1 -3 -5 -18 -5 -33 -1 -15 5 -36 5 -47 1 -11
-4 -32 -4 -47 1 -16 4 -30 3 -34 -2 -3 -5 -10 -6 -16 -3 -5 3 -28 6 -49 6 -85
-1 -111 61 -96 233 1 17 -1 42 -5 58 -3 15 -3 27 2 27 4 0 5 15 1 33 -3 17 -5
43 -4 57 1 14 4 41 6 60 1 19 -1 45 -5 57 -4 13 -3 25 3 28 5 4 6 11 3 17 -6
10 -7 79 -1 143 1 17 -1 42 -5 58 -3 15 -3 27 2 27 4 0 5 15 1 33 -3 17 -5 43
-4 57 1 14 4 41 6 60 1 19 -1 45 -5 57 -4 13 -3 25 3 28 5 4 6 11 3 17 -6 10
-7 79 -1 143 1 17 -1 42 -5 58 -3 15 -3 27 2 27 4 0 5 15 1 33 -3 17 -5 43 -4
57 1 14 4 41 6 60 1 19 -1 45 -5 57 -4 13 -3 25 3 28 5 4 6 11 3 17 -6 10 -7
79 -1 143 1 17 -1 42 -5 58 -3 15 -3 27 2 27 4 0 4 16 0 35 -4 19 -4 37 1 40
4 3 4 16 -1 29 -4 12 -5 29 0 36 5 7 5 23 1 34 -4 12 -5 32 -1 46 4 14 4 34 0
45 -4 11 -4 29 0 40 4 11 4 29 0 40 -4 11 -4 29 0 40 4 11 4 29 0 41 -5 11 -5
27 0 34 5 7 5 23 1 34 -4 12 -5 32 -1 46 4 14 4 34 0 45 -4 11 -4 29 0 40 4
11 4 29 0 40 -4 11 -4 29 0 40 4 11 4 29 0 41 -5 11 -5 27 0 34 5 7 5 23 1 34
-4 12 -5 32 -1 46 4 14 4 34 0 45 -4 11 -4 29 0 40 4 11 4 29 0 40 -4 11 -4
29 0 40 4 11 4 29 0 41 -5 11 -5 27 0 34 5 7 5 23 1 34 -4 12 -5 32 -1 46 4
14 4 34 0 45 -4 11 -4 29 0 40 4 11 4 29 0 40 -3 11 -4 34 0 50 3 17 3 42 -1
58 -4 15 -4 27 1 27 4 0 5 15 1 33 -3 17 -5 43 -4 57 1 14 4 41 6 60 1 19 -1
45 -5 57 -4 13 -3 25 3 28 5 4 6 11 3 17 -6 10 -7 79 -1 143 1 17 -1 42 -5 58
-3 15 -3 27 2 27 4 0 5 15 1 33 -3 17 -5 43 -4 57 1 14 4 41 6 60 1 19 -1 45
-5 57 -4 13 -3 25 3 28 5 4 6 11 3 17 -6 10 -7 79 -1 143 1 17 -1 42 -5 58 -3
15 -3 27 2 27 4 0 5 15 1 33 -3 17 -5 43 -4 57 1 14 4 41 6 60 1 19 -1 45 -5
57 -4 13 -3 25 3 28 5 4 6 11 3 17 -6 10 -7 79 -1 143 1 17 -1 42 -5 57 -3 15
-3 30 2 33 5 3 5 18 0 33 -16 57 28 116 90 121 19 2 37 5 39 7 2 2 7 2 11 -1
4 -2 40 -4 81 -4z"/>
</g>
</svg>
